# xmcd
#
# Track frame offsets:
#	200
#	15245
#	25725
#	34567
#	44777
#	62962
#	75932
#	89052
#	105955
#	120355
#	129862
#	144952
#
# Disc length: 2188 seconds
#
# Revision: 1
# Processed by: cddbd v1.4PL0 Copyright (c) Steve Scherf et al.
# Submitted via: audiograbber 1.80.04
#
DISCID=87088a0c
DTITLE=Gail Davies - The Best Of Gail Davies
DYEAR=1900
DGENRE=Country
TTITLE0=Someone is looking for someone like you
TTITLE1=I'll be there
TTITLE2=Blue heartache
TTITLE3=It's a lovely lovely world
TTITLE4=Grandma's song
TTITLE5=Bucket to the south
TTITLE6=I'm hungry I'm tired
TTITLE7=Round the clock loveing
TTITLE8=It's you alone
TTITLE9=Singing the blues
TTITLE10=Unwed fathers
TTITLE11=Jagged edge of a broken heart
EXTD=
EXTT0=
EXTT1=
EXTT2=
EXTT3=
EXTT4=
EXTT5=
EXTT6=
EXTT7=
EXTT8=
EXTT9=
EXTT10=
EXTT11=
PLAYORDER=
